<svg width="1440" height="234" viewBox="0 0 1440 234" fill="none" xmlns="http://www.w3.org/2000/svg">
<g clip-path="url(#clip0_4_110)">
<g clip-path="url(#clip1_4_110)">
<path fill-rule="evenodd" clip-rule="evenodd" d="M488.217 86.6051C481.96 83.6875 474.523 86.3944 471.605 92.6512C468.687 98.9079 471.394 106.345 477.651 109.263C483.908 112.18 491.345 109.473 494.263 103.217C497.18 96.9599 494.473 89.5226 488.217 86.6051ZM489.229 94.5581C489.558 95.1645 489.334 95.9236 488.728 96.2534L485.755 97.8702L486.861 98.3857C487.487 98.6775 487.757 99.4213 487.465 100.047C487.174 100.673 486.43 100.943 485.804 100.651L483.539 99.5949L483.01 100.728L485.276 101.784C485.902 102.076 486.172 102.82 485.881 103.446C485.589 104.071 484.845 104.342 484.219 104.05L481.954 102.994L481.425 104.126C481.134 104.752 480.39 105.023 479.764 104.731C479.139 104.439 478.868 103.696 479.16 103.07L479.688 101.937L477.422 100.881C476.797 100.589 476.526 99.845 476.818 99.2194C477.109 98.5938 477.853 98.323 478.479 98.6147L480.744 99.6713L481.273 98.5384L479.007 97.4819C478.381 97.1901 478.111 96.4464 478.402 95.8207C478.694 95.1951 479.438 94.9243 480.064 95.2161L481.169 95.7316L480.497 92.4153C480.36 91.7387 480.797 91.079 481.474 90.9419C482.15 90.8048 482.81 91.2421 482.947 91.9187L483.793 96.0918L487.533 94.0573C488.14 93.7274 488.899 93.9516 489.229 94.5581Z" fill="#0045A9"/>
</g>
<path d="M335.691 122.696L327.811 116.54C327.811 116.54 332.752 115.629 335.568 112.025C337.107 110.055 336.209 108.267 337.748 106.245C340.846 102.283 345.453 106.221 345.881 109.093M332.941 109.973L339.508 115.103M350.528 122.656C344.861 129.909 334.387 131.195 327.133 125.528C319.88 119.861 318.594 109.387 324.261 102.134C329.928 94.8801 340.402 93.594 347.656 99.261C354.909 104.928 356.195 115.402 350.528 122.656Z" stroke="#0045A9" stroke-width="2" stroke-linecap="round" stroke-linejoin="round"/>
<g clip-path="url(#clip2_4_110)">
<path d="M201.35 199.127L199.791 191.791M199.791 191.791L203.382 184.638M199.791 191.791L193.601 186.717M204.682 190.751L194.9 192.83M204.85 194.549L196.291 196.369M212.018 189.192C213.453 195.945 209.142 202.582 202.39 204.018C195.637 205.453 188.999 201.142 187.564 194.39C186.129 187.637 190.439 180.999 197.192 179.564C203.945 178.129 210.582 182.439 212.018 189.192Z" stroke="#00A96E" stroke-opacity="0.72" stroke-width="2" stroke-linecap="round" stroke-linejoin="round"/>
</g>
<g clip-path="url(#clip3_4_110)">
<path fill-rule="evenodd" clip-rule="evenodd" d="M65.2166 83.6051C58.9599 80.6875 51.5226 83.3944 48.605 89.6512C45.6875 95.9079 48.3944 103.345 54.6511 106.263C60.9078 109.18 68.3452 106.473 71.2627 100.217C74.1803 93.9599 71.4733 86.5226 65.2166 83.6051ZM66.2286 91.5581C66.5584 92.1645 66.3343 92.9236 65.7278 93.2534L62.7554 94.8702L63.8609 95.3857C64.4865 95.6775 64.7572 96.4213 64.4655 97.0469C64.1737 97.6726 63.43 97.9433 62.8043 97.6515L60.5385 96.5949L60.0103 97.7278L62.276 98.7844C62.9017 99.0761 63.1724 99.82 62.8806 100.446C62.5889 101.071 61.8452 101.342 61.2195 101.05L58.9537 99.9936L58.4254 101.126C58.1337 101.752 57.39 102.023 56.7643 101.731C56.1386 101.439 55.8679 100.696 56.1597 100.07L56.688 98.9371L54.4222 97.8805C53.7965 97.5888 53.5258 96.845 53.8176 96.2194C54.1093 95.5938 54.8531 95.323 55.4787 95.6147L57.7445 96.6713L58.2728 95.5384L56.007 94.4819C55.3813 94.1901 55.1106 93.4464 55.4024 92.8207C55.6941 92.1951 56.4379 91.9243 57.0635 92.2161L58.169 92.7316L57.4969 89.4153C57.3598 88.7387 57.7971 88.079 58.4737 87.9419C59.1503 87.8048 59.81 88.2421 59.9471 88.9187L60.7928 93.0918L64.5333 91.0573C65.1397 90.7274 65.8987 90.9516 66.2286 91.5581Z" fill="#0045A9"/>
</g>
<g clip-path="url(#clip4_4_110)">
<path d="M446.306 188.77C446.967 190.587 448.975 191.523 450.792 190.862L453.846 189.751C455.792 189.042 456.796 186.89 456.087 184.944C455.379 182.998 453.227 181.995 451.281 182.703L448.462 183.729C446.516 184.437 444.364 183.434 443.655 181.488C442.947 179.541 443.95 177.39 445.897 176.681L448.951 175.57C450.767 174.909 452.775 175.845 453.437 177.661M446.537 174.054L447.306 176.168M452.436 190.264L453.206 192.378M463.967 178.086C466.8 185.87 462.786 194.478 455.002 197.311C447.217 200.145 438.609 196.131 435.776 188.346C432.942 180.562 436.956 171.954 444.741 169.12C452.526 166.287 461.133 170.301 463.967 178.086Z" stroke="#00A96E" stroke-opacity="0.52" stroke-width="2" stroke-linecap="round" stroke-linejoin="round"/>
</g>
<path d="M318.667 42.1032C317.122 40.7914 315.122 40 312.938 40C308.047 40 304.083 43.9641 304.083 48.8542C304.083 53.7442 308.047 57.7083 312.938 57.7083C315.122 57.7083 317.122 56.917 318.667 55.6052M302 50.9375H312.417M302 46.7708H312.417" stroke="#00A96E" stroke-opacity="0.77" stroke-width="2" stroke-linecap="round" stroke-linejoin="round"/>
<path d="M302.123 178.965C300.83 177.405 298.998 176.279 296.846 175.899C292.031 175.05 287.438 178.266 286.589 183.081C285.74 187.897 288.956 192.489 293.771 193.339C295.923 193.718 298.03 193.286 299.779 192.262M284.176 184.771L294.434 186.58M284.899 180.668L295.158 182.477" stroke="#00A96E" stroke-width="2" stroke-linecap="round" stroke-linejoin="round"/>
<path d="M189.07 41.1679L179.167 39.7762C179.167 39.7762 182.992 36.5173 183.628 31.9878C183.976 29.5122 182.304 28.4133 182.626 25.8924C183.328 20.9116 189.287 22.0192 191.093 24.2919M180.327 31.5239L188.579 32.6837M201.899 33.7141C200.618 42.8292 192.19 49.1801 183.075 47.899C173.96 46.618 167.609 38.1901 168.89 29.075C170.171 19.9599 178.599 13.6091 187.714 14.8901C196.829 16.1711 203.18 24.599 201.899 33.7141Z" stroke="#0045A9" stroke-width="2" stroke-linecap="round" stroke-linejoin="round"/>
<g clip-path="url(#clip5_4_110)">
<path d="M396.35 31.127L394.791 23.7909M394.791 23.7909L398.382 16.6379M394.791 23.7909L388.601 18.717M399.682 22.7514L389.9 24.8305M399.85 26.5494L391.291 28.3686M407.018 21.192C408.453 27.9447 404.142 34.5824 397.39 36.0178C390.637 37.4531 383.999 33.1424 382.564 26.3898C381.129 19.6371 385.439 12.9994 392.192 11.5641C398.945 10.1287 405.582 14.4393 407.018 21.192Z" stroke="#00A96E" stroke-width="2" stroke-linecap="round" stroke-linejoin="round"/>
</g>
<g clip-path="url(#clip6_4_110)">
<path d="M60.4522 188.95C60.8035 190.758 62.5532 191.938 64.3604 191.587L67.6325 190.951C69.4395 190.599 70.6198 188.849 70.2685 187.042C69.9172 185.235 68.1675 184.055 66.3604 184.406L63.0883 185.042C61.2812 185.394 59.5314 184.213 59.1802 182.406C58.8289 180.599 60.0091 178.849 61.8162 178.498L65.0883 177.862C66.8954 177.511 68.6452 178.691 68.9965 180.498M63.1343 176.544L66.3144 192.905" stroke="#0045A9" stroke-width="2" stroke-linecap="round" stroke-linejoin="round"/>
</g>
<g clip-path="url(#clip7_4_110)">
<path d="M769.452 33.9505C769.804 35.7576 771.553 36.9378 773.36 36.5865L776.632 35.9505C778.44 35.5993 779.62 33.8495 779.269 32.0424C778.917 30.2353 777.168 29.0551 775.36 29.4063L772.088 30.0424C770.281 30.3936 768.531 29.2134 768.18 27.4063C767.829 25.5992 769.009 23.8495 770.816 23.4982L774.088 22.8622C775.895 22.5109 777.645 23.6911 777.996 25.4982M772.134 21.5441L775.314 37.9046" stroke="#00A96E" stroke-width="2" stroke-linecap="round" stroke-linejoin="round"/>
</g>
<path d="M648.691 40.6963L640.811 34.5397C640.811 34.5397 645.752 33.6295 648.568 30.0251C650.107 28.0551 649.209 26.2674 650.748 24.245C653.846 20.2826 658.453 24.2213 658.881 27.0926M645.941 27.9729L652.508 33.1034M663.528 40.6556C657.861 47.9089 647.387 49.195 640.133 43.528C632.88 37.861 631.594 27.3869 637.261 20.1335C642.928 12.8801 653.402 11.594 660.656 17.261C667.909 22.928 669.195 33.4021 663.528 40.6556Z" stroke="#0045A9" stroke-opacity="0.34" stroke-width="2" stroke-linecap="round" stroke-linejoin="round"/>
<path d="M29.4573 14.2379L34.9152 12.8771C36.5899 12.4596 38.2859 13.4787 38.7034 15.1533C39.121 16.8279 38.1019 18.5239 36.4273 18.9415L30.9693 20.3023L29.4573 14.2379ZM29.4573 14.2379L32.7838 27.5795M31.2726 20.2267L29.15 20.7559M36.1972 23.1857L30.1328 24.6977M46.2814 17.1287C47.9515 23.8271 43.8752 30.6113 37.1767 32.2814C30.4782 33.9515 23.6941 29.8752 22.024 23.1767C20.3539 16.4782 24.4302 9.69413 31.1287 8.02401C37.8271 6.3539 44.6113 10.4302 46.2814 17.1287Z" stroke="#371F81" stroke-opacity="0.52" stroke-width="2" stroke-linecap="round" stroke-linejoin="round"/>
<g clip-path="url(#clip8_4_110)">
<path d="M529.119 20.2491L536.194 22.0131M530.001 16.7117L537.076 18.4757M532.662 29.7213L528.237 23.787L529.753 24.1648C534.246 25.2849 536.01 18.2098 531.517 17.0897M542.26 25.6727C540.868 31.2548 535.215 34.6517 529.633 33.26C524.051 31.8682 520.654 26.2147 522.045 20.6327C523.437 15.0506 529.091 11.6537 534.673 13.0455C540.255 14.4372 543.652 20.0907 542.26 25.6727Z" stroke="#0045A9" stroke-width="2" stroke-linecap="round" stroke-linejoin="round"/>
</g>
<g clip-path="url(#clip9_4_110)">
<path fill-rule="evenodd" clip-rule="evenodd" d="M1018.56 44.192C1020 37.4393 1026.64 33.1287 1033.39 34.564C1040.14 35.9994 1044.45 42.6371 1043.02 49.3898C1041.58 56.1424 1034.94 60.4531 1028.19 59.0177C1021.44 57.5824 1017.13 50.9446 1018.56 44.192ZM1026.5 47.1559C1026.4 48.2297 1026.49 49.3465 1026.82 50.3652C1027.28 51.7818 1028.25 53.0731 1029.91 53.6333C1031.58 54.2019 1033.51 53.7462 1034.85 52.6191C1035.38 52.1746 1035.45 51.3861 1035 50.8579C1034.5 50.2605 1033.72 50.3305 1033.15 50.7758C1031.7 51.9291 1029.77 51.3553 1029.2 49.5902C1029.01 49.0245 1028.94 48.3639 1028.97 47.6809L1034.2 48.7932C1034.87 48.9368 1035.54 48.5057 1035.68 47.8304C1035.83 47.1552 1035.39 46.4914 1034.72 46.3479L1029.52 45.2422C1029.77 44.6366 1030.11 44.0931 1030.5 43.6711C1031.68 42.4075 1033.74 42.4551 1034.56 44.0989C1034.87 44.7342 1035.55 45.1354 1036.25 44.8199C1036.88 44.5373 1037.16 43.7955 1036.88 43.1656C1036.14 41.5324 1034.76 40.5163 1032.98 40.2935C1031.19 40.0707 1029.72 40.8445 1028.67 41.9681C1027.95 42.7438 1027.41 43.7079 1027.04 44.7154L1026.16 44.5286C1025.48 44.3851 1024.82 44.8162 1024.68 45.4914C1024.53 46.1667 1024.97 46.8305 1025.64 46.974L1026.5 47.1559Z" fill="#371F81" fill-opacity="0.67"/>
</g>
<g clip-path="url(#clip10_4_110)">
<path fill-rule="evenodd" clip-rule="evenodd" d="M873.217 11.6051C866.96 8.68748 859.523 11.3944 856.605 17.6512C853.688 23.9079 856.394 31.3452 862.651 34.2628C868.908 37.1803 876.345 34.4733 879.263 28.2166C882.18 21.9599 879.473 14.5226 873.217 11.6051ZM874.229 19.5581C874.558 20.1645 874.334 20.9236 873.728 21.2534L870.755 22.8702L871.861 23.3857C872.487 23.6775 872.757 24.4213 872.465 25.0469C872.174 25.6726 871.43 25.9433 870.804 25.6515L868.539 24.5949L868.01 25.7278L870.276 26.7844C870.902 27.0761 871.172 27.82 870.881 28.4455C870.589 29.0712 869.845 29.3419 869.22 29.0501L866.954 27.9936L866.425 29.1265C866.134 29.7522 865.39 30.0229 864.764 29.7311C864.139 29.4393 863.868 28.6956 864.16 28.0699L864.688 26.9371L862.422 25.8805C861.797 25.5888 861.526 24.845 861.818 24.2194C862.109 23.5938 862.853 23.323 863.479 23.6147L865.745 24.6713L866.273 23.5384L864.007 22.4819C863.381 22.1901 863.111 21.4464 863.402 20.8207C863.694 20.1951 864.438 19.9243 865.064 20.2161L866.169 20.7316L865.497 17.4153C865.36 16.7387 865.797 16.079 866.474 15.9419C867.15 15.8048 867.81 16.2421 867.947 16.9187L868.793 21.0918L872.533 19.0573C873.14 18.7274 873.899 18.9516 874.229 19.5581Z" fill="#0045A9"/>
</g>
<g clip-path="url(#clip11_4_110)">
<path d="M1369.31 197.77C1369.97 199.587 1371.98 200.523 1373.79 199.862L1376.85 198.751C1378.79 198.042 1379.8 195.89 1379.09 193.944C1378.38 191.998 1376.23 190.995 1374.28 191.703L1371.46 192.729C1369.52 193.437 1367.36 192.434 1366.66 190.488C1365.95 188.541 1366.95 186.39 1368.9 185.681L1371.95 184.57C1373.77 183.909 1375.78 184.845 1376.44 186.661M1369.54 183.054L1370.31 185.168M1375.44 199.264L1376.21 201.378M1386.97 187.086C1389.8 194.87 1385.79 203.478 1378 206.311C1370.22 209.145 1361.61 205.131 1358.78 197.346C1355.94 189.562 1359.96 180.954 1367.74 178.12C1375.53 175.287 1384.13 179.301 1386.97 187.086Z" stroke="#00A96E" stroke-opacity="0.52" stroke-width="2" stroke-linecap="round" stroke-linejoin="round"/>
</g>
<g clip-path="url(#clip12_4_110)">
<path d="M1231.45 210.95C1231.8 212.758 1233.55 213.938 1235.36 213.587L1238.63 212.951C1240.44 212.599 1241.62 210.849 1241.27 209.042C1240.92 207.235 1239.17 206.055 1237.36 206.406L1234.09 207.042C1232.28 207.394 1230.53 206.213 1230.18 204.406C1229.83 202.599 1231.01 200.849 1232.82 200.498L1236.09 199.862C1237.9 199.511 1239.65 200.691 1240 202.498M1234.13 198.544L1237.31 214.905" stroke="#0045A9" stroke-opacity="0.36" stroke-width="2" stroke-linecap="round" stroke-linejoin="round"/>
</g>
<g clip-path="url(#clip13_4_110)">
<path fill-rule="evenodd" clip-rule="evenodd" d="M1208.56 54.192C1210 47.4393 1216.64 43.1287 1223.39 44.564C1230.14 45.9994 1234.45 52.6371 1233.02 59.3898C1231.58 66.1424 1224.94 70.4531 1218.19 69.0177C1211.44 67.5824 1207.13 60.9446 1208.56 54.192ZM1216.5 57.1559C1216.4 58.2297 1216.49 59.3465 1216.82 60.3652C1217.28 61.7818 1218.25 63.0731 1219.91 63.6333C1221.58 64.2019 1223.51 63.7462 1224.85 62.6191C1225.38 62.1746 1225.45 61.3861 1225 60.8579C1224.5 60.2605 1223.72 60.3305 1223.15 60.7758C1221.7 61.9291 1219.77 61.3553 1219.2 59.5902C1219.01 59.0245 1218.94 58.3639 1218.97 57.6809L1224.2 58.7932C1224.87 58.9368 1225.54 58.5057 1225.68 57.8304C1225.83 57.1552 1225.39 56.4914 1224.72 56.3479L1219.52 55.2422C1219.77 54.6366 1220.11 54.0931 1220.5 53.6711C1221.68 52.4075 1223.74 52.4551 1224.56 54.0989C1224.87 54.7342 1225.55 55.1354 1226.25 54.8199C1226.88 54.5373 1227.16 53.7955 1226.88 53.1656C1226.14 51.5324 1224.76 50.5163 1222.98 50.2935C1221.19 50.0707 1219.72 50.8445 1218.67 51.9681C1217.95 52.7438 1217.41 53.7079 1217.04 54.7154L1216.16 54.5286C1215.48 54.3851 1214.82 54.8162 1214.68 55.4914C1214.53 56.1667 1214.97 56.8305 1215.64 56.974L1216.5 57.1559Z" fill="#371F81"/>
</g>
<path d="M850.457 97.2379L855.915 95.8771C857.59 95.4596 859.286 96.4787 859.703 98.1533C860.121 99.8279 859.102 101.524 857.427 101.941L851.969 103.302L850.457 97.2379ZM850.457 97.2379L853.784 110.579M852.273 103.227L850.15 103.756M857.197 106.186L851.133 107.698M867.281 100.129C868.952 106.827 864.875 113.611 858.177 115.281C851.478 116.952 844.694 112.875 843.024 106.177C841.354 99.4782 845.43 92.6941 852.129 91.024C858.827 89.3539 865.611 93.4302 867.281 100.129Z" stroke="#371F81" stroke-opacity="0.46" stroke-width="2" stroke-linecap="round" stroke-linejoin="round"/>
<g clip-path="url(#clip14_4_110)">
<path fill-rule="evenodd" clip-rule="evenodd" d="M1099.68 154.058C1094.63 158.767 1094.35 166.676 1099.06 171.725C1103.77 176.774 1111.68 177.05 1116.73 172.342C1121.77 167.634 1122.05 159.724 1117.34 154.675C1112.63 149.626 1104.72 149.35 1099.68 154.058ZM1107.43 156.099C1108.11 156.021 1108.73 156.513 1108.81 157.199L1109.2 160.56L1110.09 159.729C1110.6 159.258 1111.39 159.285 1111.86 159.79C1112.33 160.295 1112.3 161.086 1111.8 161.557L1109.97 163.262L1110.82 164.176L1112.65 162.471C1113.15 162 1113.94 162.028 1114.41 162.533C1114.89 163.038 1114.86 163.829 1114.35 164.299L1112.52 166.004L1113.38 166.919C1113.85 167.424 1113.82 168.215 1113.32 168.685C1112.81 169.156 1112.02 169.129 1111.55 168.624L1110.7 167.709L1108.87 169.414C1108.36 169.885 1107.57 169.858 1107.1 169.353C1106.63 168.848 1106.66 168.057 1107.16 167.586L1108.99 165.881L1108.14 164.967L1106.31 166.672C1105.81 167.143 1105.01 167.115 1104.54 166.61C1104.07 166.105 1104.1 165.314 1104.61 164.843L1105.5 164.012L1102.17 163.392C1101.49 163.266 1101.04 162.614 1101.17 161.935C1101.3 161.256 1101.95 160.808 1102.63 160.935L1106.81 161.714L1106.33 157.484C1106.25 156.798 1106.74 156.178 1107.43 156.099Z" fill="#0045A9"/>
</g>
<path d="M713.539 98.3615C713.039 100.229 714.147 102.148 716.014 102.648L719.154 103.489C721.154 104.025 723.21 102.838 723.746 100.838C724.282 98.8371 723.095 96.7808 721.095 96.2448L718.197 95.4684C716.197 94.9323 715.009 92.876 715.545 90.8756C716.081 88.8751 718.138 87.6879 720.138 88.2239L723.277 89.0651C725.144 89.5654 726.253 91.4846 725.752 93.3517M722.169 86.4388L721.587 88.6121M717.705 103.101L717.122 105.274M734.135 99.7389C731.991 107.741 723.766 112.49 715.764 110.345C707.762 108.201 703.013 99.9762 705.157 91.9743C707.301 83.9723 715.526 79.2236 723.528 81.3677C731.53 83.5118 736.279 91.7369 734.135 99.7389Z" stroke="#00A96E" stroke-width="2" stroke-linecap="round" stroke-linejoin="round"/>
<path d="M1051.12 204.965C1049.83 203.405 1048 202.279 1045.85 201.899C1041.03 201.05 1036.44 204.266 1035.59 209.081C1034.74 213.897 1037.96 218.489 1042.77 219.339C1044.92 219.718 1047.03 219.286 1048.78 218.262M1033.18 210.771L1043.43 212.58M1033.9 206.668L1044.16 208.477" stroke="#00A96E" stroke-width="2" stroke-linecap="round" stroke-linejoin="round"/>
<path d="M951.5 72.5973L941.597 71.2056C941.597 71.2056 945.421 67.9468 946.058 63.4173C946.406 60.9416 944.734 59.8427 945.055 57.3218C945.757 52.3411 951.716 53.4486 953.522 55.7213M942.757 62.9534L951.009 64.1132M964.328 65.1436C963.047 74.2587 954.62 80.6095 945.504 79.3285C936.389 78.0474 930.039 69.6196 931.32 60.5045C932.601 51.3893 941.028 45.0385 950.144 46.3196C959.259 47.6006 965.61 56.0284 964.328 65.1436Z" stroke="#0045A9" stroke-width="2" stroke-linecap="round" stroke-linejoin="round"/>
<g clip-path="url(#clip15_4_110)">
<path d="M633.434 187.163C633.43 185.679 632.9 184.192 631.829 183.002C629.519 180.437 625.567 180.23 623.002 182.539C620.437 184.849 620.23 188.801 622.539 191.366C623.611 192.556 625.035 193.238 626.51 193.398M620.772 182.865L624.954 187.51M623.559 180.356L627.741 185.001M635.548 196.473C630.418 201.093 622.514 200.679 617.895 195.548C613.275 190.418 613.69 182.514 618.82 177.895C623.95 173.275 631.854 173.69 636.473 178.82C641.093 183.95 640.679 191.854 635.548 196.473Z" stroke="#3800A9" stroke-width="2" stroke-linecap="round" stroke-linejoin="round"/>
</g>
<path d="M1318.67 150.103C1317.12 148.791 1315.12 148 1312.94 148C1308.05 148 1304.08 151.964 1304.08 156.854C1304.08 161.744 1308.05 165.708 1312.94 165.708C1315.12 165.708 1317.12 164.917 1318.67 163.605M1302 158.937H1312.42M1302 154.771H1312.42" stroke="#00A96E" stroke-width="2" stroke-linecap="round" stroke-linejoin="round"/>
<path d="M1356.69 39.6963L1348.81 33.5397C1348.81 33.5397 1353.75 32.6295 1356.57 29.0251C1358.11 27.0551 1357.21 25.2674 1358.75 23.245C1361.85 19.2826 1366.45 23.2213 1366.88 26.0926M1353.94 26.9729L1360.51 32.1034M1371.53 39.6556C1365.86 46.9089 1355.39 48.195 1348.13 42.528C1340.88 36.861 1339.59 26.3869 1345.26 19.1335C1350.93 11.8801 1361.4 10.594 1368.66 16.261C1375.91 21.928 1377.2 32.4021 1371.53 39.6556Z" stroke="#0045A9" stroke-opacity="0.34" stroke-width="2" stroke-linecap="round" stroke-linejoin="round"/>
<g clip-path="url(#clip16_4_110)">
<path d="M1299.12 72.2491L1306.19 74.0131M1300 68.7117L1307.08 70.4757M1302.66 81.7213L1298.24 75.787L1299.75 76.1648C1304.25 77.2849 1306.01 70.2098 1301.52 69.0897M1312.26 77.6727C1310.87 83.2548 1305.21 86.6517 1299.63 85.26C1294.05 83.8682 1290.65 78.2147 1292.05 72.6327C1293.44 67.0506 1299.09 63.6537 1304.67 65.0455C1310.25 66.4372 1313.65 72.0907 1312.26 77.6727Z" stroke="#0045A9" stroke-width="2" stroke-linecap="round" stroke-linejoin="round"/>
</g>
<path d="M1217.39 129.162L1215.83 121.826M1215.83 121.826L1219.42 114.673M1215.83 121.826L1209.64 116.752M1220.72 120.786L1210.94 122.865M1220.88 124.584L1212.33 126.403M1228.05 119.227C1229.49 125.979 1225.18 132.617 1218.42 134.053C1211.67 135.488 1205.03 131.177 1203.6 124.425C1202.16 117.672 1206.47 111.034 1213.23 109.599C1219.98 108.164 1226.62 112.474 1228.05 119.227Z" stroke="#00A96E" stroke-width="2" stroke-linecap="round" stroke-linejoin="round"/>
<path d="M855.226 197.36C855.577 199.167 857.327 200.348 859.134 199.996L862.406 199.36C864.213 199.009 865.394 197.259 865.042 195.452C864.691 193.645 862.941 192.465 861.134 192.816L857.862 193.452C856.055 193.804 854.305 192.623 853.954 190.816C853.603 189.009 854.783 187.259 856.59 186.908L859.862 186.272C861.669 185.921 863.419 187.101 863.77 188.908M857.908 184.954L861.088 201.314" stroke="#0045A9" stroke-width="2" stroke-linecap="round" stroke-linejoin="round"/>
<path d="M211.457 106.238L216.915 104.877C218.59 104.46 220.286 105.479 220.703 107.153C221.121 108.828 220.102 110.524 218.427 110.941L212.969 112.302L211.457 106.238ZM211.457 106.238L214.784 119.579M213.273 112.227L211.15 112.756M218.197 115.186L212.133 116.698M228.281 109.129C229.952 115.827 225.875 122.611 219.177 124.281C212.478 125.952 205.694 121.875 204.024 115.177C202.354 108.478 206.43 101.694 213.129 100.024C219.827 98.3539 226.611 102.43 228.281 109.129Z" stroke="#371F81" stroke-opacity="0.65" stroke-width="2" stroke-linecap="round" stroke-linejoin="round"/>
<path fill-rule="evenodd" clip-rule="evenodd" d="M571.037 131.85C567.903 125.699 570.349 118.172 576.5 115.037C582.651 111.903 590.178 114.349 593.313 120.5C596.447 126.651 594.001 134.178 587.85 137.313C581.699 140.447 574.171 138.001 571.037 131.85ZM579.067 129.161C579.669 130.056 580.438 130.87 581.337 131.453C582.588 132.263 584.156 132.655 585.793 132.049C587.455 131.435 588.663 129.871 588.997 128.15C589.128 127.472 588.684 126.817 588.006 126.686C587.24 126.538 586.676 127.085 586.519 127.785C586.112 129.598 584.255 130.364 582.697 129.355C582.197 129.031 581.723 128.565 581.317 128.015L586.084 125.586C586.699 125.273 586.943 124.52 586.63 123.905C586.317 123.29 585.564 123.045 584.949 123.359L580.21 125.773C580.029 125.14 579.949 124.506 579.988 123.931C580.107 122.209 581.742 120.947 583.408 121.713C584.052 122.009 584.832 121.893 585.18 121.206C585.491 120.59 585.24 119.839 584.624 119.527C583.027 118.719 581.311 118.801 579.784 119.751C578.257 120.7 577.6 122.228 577.494 123.76C577.421 124.817 577.604 125.909 577.953 126.923L577.152 127.331C576.537 127.645 576.293 128.397 576.606 129.012C576.92 129.628 577.672 129.872 578.287 129.559L579.067 129.161Z" fill="#371F81"/>
<path d="M1053.39 119.162L1051.83 111.826M1051.83 111.826L1055.42 104.673M1051.83 111.826L1045.64 106.752M1056.72 110.786L1046.94 112.865M1056.88 114.584L1048.33 116.403M1064.05 109.227C1065.49 115.979 1061.18 122.617 1054.42 124.053C1047.67 125.488 1041.03 121.177 1039.6 114.425C1038.16 107.672 1042.47 101.034 1049.23 99.5989C1055.98 98.1636 1062.62 102.474 1064.05 109.227Z" stroke="#00A96E" stroke-opacity="0.72" stroke-width="2" stroke-linecap="round" stroke-linejoin="round"/>
<path d="M1132.9 22.6327C1132.9 21.1487 1132.37 19.661 1131.3 18.4714C1128.99 15.9062 1125.04 15.6991 1122.47 18.0088C1119.91 20.3185 1119.7 24.2703 1122.01 26.8355C1123.08 28.0251 1124.5 28.7075 1125.98 28.867M1120.24 18.3345L1124.42 22.9791M1123.03 15.8252L1127.21 20.4699M1135.02 31.9428C1129.89 36.5621 1121.98 36.1479 1117.36 31.0176C1112.74 25.8872 1113.16 17.9835 1118.29 13.3641C1123.42 8.74475 1131.32 9.15896 1135.94 14.2893C1140.56 19.4196 1140.15 27.3234 1135.02 31.9428Z" stroke="#3800A9" stroke-width="2" stroke-linecap="round" stroke-linejoin="round"/>
<path d="M933.594 143.724L940.669 145.488M934.476 140.186L941.551 141.95M937.137 153.196L932.712 147.262L934.228 147.639C938.72 148.759 940.484 141.684 935.992 140.564M946.735 149.147C945.343 154.729 939.689 158.126 934.107 156.735C928.525 155.343 925.128 149.689 926.52 144.107C927.912 138.525 933.565 135.128 939.147 136.52C944.729 137.912 948.126 143.565 946.735 149.147Z" stroke="#0045A9" stroke-width="2" stroke-linecap="round" stroke-linejoin="round"/>
<path d="M744.489 173.165L751.201 170.316M743.064 169.81L749.776 166.96M753.019 178.598L745.913 176.522L747.352 175.911C751.613 174.102 748.764 167.39 744.502 169.199M758.247 169.589C760.495 174.884 758.024 180.999 752.729 183.247C747.433 185.495 741.318 183.024 739.07 177.729C736.822 172.433 739.293 166.318 744.589 164.07C749.884 161.822 755.999 164.293 758.247 169.589Z" stroke="#0045A9" stroke-opacity="0.78" stroke-width="2" stroke-linecap="round" stroke-linejoin="round"/>
</g>
<defs>
<clipPath id="clip0_4_110">
<rect width="1440" height="234" fill="white"/>
</clipPath>
<clipPath id="clip1_4_110">
<rect width="30" height="30" fill="white" transform="translate(475.679 78) rotate(25)"/>
</clipPath>
<clipPath id="clip2_4_110">
<rect width="30" height="30" fill="white" transform="translate(182 180.237) rotate(-12)"/>
</clipPath>
<clipPath id="clip3_4_110">
<rect width="30" height="30" fill="white" transform="translate(52.6785 75) rotate(25)"/>
</clipPath>
<clipPath id="clip4_4_110">
<rect width="42.2965" height="42.2965" fill="white" transform="translate(423 170.466) rotate(-20)"/>
</clipPath>
<clipPath id="clip5_4_110">
<rect width="30" height="30" fill="white" transform="translate(377 12.2374) rotate(-12)"/>
</clipPath>
<clipPath id="clip6_4_110">
<rect width="20" height="20" fill="white" transform="translate(53 176.816) rotate(-11)"/>
</clipPath>
<clipPath id="clip7_4_110">
<rect width="20" height="20" fill="white" transform="translate(762 21.8162) rotate(-11)"/>
</clipPath>
<clipPath id="clip8_4_110">
<rect width="25" height="25" fill="white" transform="translate(523.048 8) rotate(14)"/>
</clipPath>
<clipPath id="clip9_4_110">
<rect width="30" height="30" fill="white" transform="translate(1019.24 29) rotate(12)"/>
</clipPath>
<clipPath id="clip10_4_110">
<rect width="30" height="30" fill="white" transform="translate(860.679 3) rotate(25)"/>
</clipPath>
<clipPath id="clip11_4_110">
<rect width="42.2965" height="42.2965" fill="white" transform="translate(1346 179.466) rotate(-20)"/>
</clipPath>
<clipPath id="clip12_4_110">
<rect width="20" height="20" fill="white" transform="translate(1224 198.816) rotate(-11)"/>
</clipPath>
<clipPath id="clip13_4_110">
<rect width="30" height="30" fill="white" transform="translate(1209.24 39) rotate(12)"/>
</clipPath>
<clipPath id="clip14_4_110">
<rect width="30" height="30" fill="white" transform="translate(1087 162.46) rotate(-43)"/>
</clipPath>
<clipPath id="clip15_4_110">
<rect width="30" height="30" fill="white" transform="translate(628.294 166) rotate(48)"/>
</clipPath>
<clipPath id="clip16_4_110">
<rect width="25" height="25" fill="white" transform="translate(1293.05 60) rotate(14)"/>
</clipPath>
</defs>
</svg>
